<?xml version="1.0" standalone="no"?>
<!DOCTYPE svg PUBLIC "-//W3C//DTD SVG 20010904//EN"
 "http://www.w3.org/TR/2001/REC-SVG-20010904/DTD/svg10.dtd">
<svg version="1.0" xmlns="http://www.w3.org/2000/svg"
 width="1000.000000pt" height="800.000000pt" viewBox="0 0 1000.000000 800.000000"
 preserveAspectRatio="xMidYMid meet">

<g transform="translate(0.000000,800.000000) scale(0.100000,-0.100000)"
fill="#000000" stroke="none">
<path d="M4782 6958 c-35 -5 -130 -26 -212 -46 l-148 -38 -7 32 c-8 44 -33 66
-27 24 4 -28 2 -30 -31 -30 -67 0 -91 -23 -36 -34 41 -8 28 -23 -27 -32 -56
-8 -46 -20 19 -23 26 -1 21 -17 -23 -65 -22 -24 -40 -46 -40 -50 0 -4 -16 -26
-36 -49 -50 -58 -92 -132 -133 -230 -14 -36 -14 -208 0 -244 24 -59 35 -79 65
-120 l32 -42 7 37 c19 106 98 111 168 12 13 -18 18 -19 41 -9 30 14 29 24 -11
102 -28 53 -27 63 11 152 32 75 33 123 2 183 -32 65 -39 103 -31 178 10 93 22
79 17 -19 -4 -68 -1 -92 15 -128 19 -41 25 -46 94 -71 143 -52 262 -74 342
-63 l50 7 -23 18 c-12 9 -20 22 -17 27 8 13 106 40 175 49 l52 7 0 -47 c0 -43
-2 -46 -25 -46 -36 0 -95 -27 -127 -57 -38 -36 -35 -50 4 -22 17 13 59 30 92
39 37 10 61 22 61 31 0 20 58 55 103 63 39 6 72 37 72 68 0 42 -47 152 -90
209 -42 56 -46 64 -29 67 29 5 23 24 -18 63 -111 104 -169 121 -331 97z"/>
<path d="M4565 6320 c-22 -10 -51 -28 -65 -40 l-25 -21 30 5 c17 3 66 14 110
26 44 11 91 23 104 26 20 4 22 7 10 15 -24 15 -121 9 -164 -11z"/>
<path d="M4973 6245 c-46 -20 -61 -95 -21 -103 18 -3 32 26 33 68 0 16 9 29
25 37 34 17 3 16 -37 -2z"/>
<path d="M4645 6216 c-42 -18 -58 -41 -51 -71 14 -56 71 -33 71 28 0 28 5 34
35 44 l35 12 -30 0 c-16 0 -44 -6 -60 -13z"/>
<path d="M4364 5939 c-33 -65 -36 -133 -8 -221 4 -13 0 -18 -15 -18 -25 0 -25
-1 -7 -45 34 -79 131 -156 236 -185 25 -7 39 -15 33 -17 -31 -11 -8 -23 45
-23 147 0 295 94 342 218 12 31 25 64 29 72 12 23 34 120 28 126 -2 3 -20 -5
-40 -16 l-35 -21 -29 25 c-27 23 -34 24 -69 14 -68 -18 -148 -3 -241 47 -45
25 -89 45 -97 45 -8 0 -31 -9 -51 -21 l-35 -21 -34 37 -34 37 -18 -33z m350
-148 c44 -11 99 -21 123 -21 36 0 43 -3 43 -20 0 -31 -55 -85 -111 -109 -43
-19 -55 -20 -85 -11 -61 21 -124 138 -94 175 8 9 21 14 29 12 9 -3 52 -14 95
-26z"/>
<path d="M4610 5793 c0 -22 42 -72 73 -86 50 -24 128 -22 161 4 37 29 33 35
-20 31 -70 -6 -131 7 -163 34 -28 24 -51 31 -51 17z"/>
<path d="M6243 5719 c-18 -5 -39 -19 -48 -31 -21 -31 -19 -91 5 -119 l19 -24
1 28 c0 32 27 103 36 94 3 -3 1 -14 -5 -25 -16 -30 -13 -87 4 -102 8 -7 59
-14 120 -18 100 -5 105 -4 105 15 0 14 -10 22 -37 30 l-38 10 38 2 c34 1 38 4
35 24 -2 16 -11 23 -33 25 -16 1 -48 7 -70 12 -22 5 -53 12 -68 15 -26 5 -27
8 -21 40 7 37 6 38 -43 24z"/>
<path d="M6590 5648 c0 -15 -9 -18 -49 -18 l-49 0 -1 -61 0 -61 42 7 c28 4 51
16 70 36 32 35 34 58 7 90 -16 20 -19 21 -20 7z"/>
<path d="M3222 5298 c-15 -15 -15 -58 1 -78 23 -30 88 -73 96 -64 4 5 15 35
25 67 15 49 21 58 37 54 31 -8 22 3 -16 19 -42 17 -126 19 -143 2z"/>
<path d="M1500 2775 l0 -1405 3695 0 3695 0 0 1406 0 1405 -2197 -2 -2198 -2
-65 -23 c-132 -47 -206 -75 -255 -98 -67 -31 -473 -161 -550 -176 -33 -6 -79
-16 -102 -21 -67 -15 -133 -11 -177 11 -64 30 -65 33 -93 263 l-6 47 -873 0
-874 0 0 -1405z"/>
</g>
</svg>
